<svg width="65" height="64" viewBox="0 0 65 64" fill="none" xmlns="http://www.w3.org/2000/svg">
<path d="M24.1904 39.51L24.2869 39.557L24.4589 39.64C24.6784 39.7445 24.8999 39.848 25.1234 39.9475L25.2639 40.01C25.5204 40.1225 25.7784 40.2295 26.0394 40.3325L26.2284 40.4065C26.4694 40.5005 26.7144 40.5915 26.9599 40.678L27.0519 40.7095C27.3214 40.8035 27.5934 40.891 27.8679 40.9765L28.0654 41.035C28.3444 41.1195 28.6199 41.22 28.9079 41.2735C47.1849 44.606 52.4934 30.29 52.4934 30.29C48.0344 36.099 40.1199 37.6315 32.6209 35.9255C32.3369 35.8615 32.0609 35.7725 31.7839 35.6905L31.5754 35.6275C31.3053 35.5446 31.0366 35.4573 30.7694 35.3655L30.6589 35.3255C30.4208 35.2412 30.1839 35.1533 29.9484 35.062L29.7494 34.984C29.4917 34.8826 29.236 34.7763 28.9824 34.665L28.8289 34.597C28.6121 34.4992 28.3964 34.3989 28.1819 34.296L27.9944 34.206C27.8264 34.124 27.6599 34.0365 27.4939 33.951L27.1599 33.776C26.9581 33.6675 26.7582 33.5553 26.5604 33.4395L26.3579 33.3265C26.095 33.1709 25.8344 33.0112 25.5764 32.8475L25.3659 32.7075C25.1786 32.5874 24.9932 32.4642 24.8099 32.338L24.6309 32.212C24.4539 32.087 24.2789 31.9605 24.1054 31.832L23.8724 31.6555C23.7129 31.5342 23.5549 31.4108 23.3984 31.2855L23.1869 31.1155C22.9879 30.9521 22.7909 30.7863 22.5959 30.618L22.5314 30.5635C22.3209 30.3792 22.1136 30.1913 21.9094 30L21.7344 29.8315C21.5829 29.688 21.4344 29.543 21.2879 29.3945L21.1129 29.2195C20.9273 29.0294 20.7448 28.8364 20.5654 28.6405L20.5384 28.6115C20.3493 28.4044 20.1641 28.1937 19.9829 27.9795L19.8374 27.8065C19.7024 27.644 19.5684 27.479 19.4379 27.3125L19.2914 27.1305C19.1346 26.9279 18.9808 26.7231 18.8299 26.516C14.6669 20.837 13.1709 13.0045 16.4984 6.57201L13.5489 10.313C9.76942 15.7445 10.2404 22.8115 13.1269 28.5835L13.3384 28.994L13.4739 29.254L13.5579 29.4035L13.7084 29.673C13.7979 29.831 13.8894 29.988 13.9834 30.145L14.1409 30.4045C14.2449 30.5725 14.3514 30.7385 14.4609 30.9045L14.5969 31.1155C14.7474 31.3395 14.9014 31.5635 15.0599 31.7835L15.0734 31.801L15.1514 31.9065C15.2889 32.096 15.4304 32.283 15.5734 32.468L15.7324 32.67C15.8599 32.8305 15.9904 32.9905 16.1224 33.1495L16.2714 33.327C16.4489 33.5365 16.6299 33.7445 16.8149 33.948L16.8259 33.9595L16.8469 33.9825C17.0269 34.1795 17.2119 34.3715 17.3989 34.5645L17.5759 34.743C17.7209 34.889 17.8679 35.0325 18.0169 35.1755L18.1974 35.347C18.3959 35.534 18.5964 35.7175 18.8014 35.8975L18.8114 35.905L18.9164 35.995C19.0969 36.151 19.2809 36.3065 19.4659 36.459L19.6934 36.64C19.8444 36.761 19.9974 36.8805 20.1514 36.998L20.3959 37.184C20.5659 37.309 20.7369 37.432 20.9094 37.5525L21.0969 37.6855L21.1484 37.722C21.3124 37.835 21.4799 37.943 21.6474 38.0515L21.8634 38.1955C22.1199 38.358 22.3809 38.5185 22.6444 38.6735L22.8604 38.7955C23.0544 38.907 23.2489 39.0165 23.4464 39.1235L23.7704 39.2915L24.1904 39.51ZM26.0369 21.1125C26.4464 21.6995 26.8999 22.3975 27.4434 22.8695C27.6404 23.0865 27.8464 23.2975 28.0564 23.506L28.2184 23.665C28.4229 23.863 28.6304 24.0575 28.8444 24.247L28.8704 24.269L28.8764 24.2755C29.1139 24.4835 29.3589 24.6835 29.6079 24.8805L29.7744 25.0105C30.0244 25.202 30.2789 25.39 30.5399 25.5695L30.5624 25.586L30.9114 25.816L31.0774 25.926C31.2639 26.045 31.4524 26.162 31.6449 26.273L31.7249 26.3195C31.8904 26.415 32.0584 26.509 32.2264 26.6L32.4044 26.6935L32.7554 26.875L32.8084 26.899C33.0494 27.0175 33.2924 27.1315 33.5404 27.24L33.7019 27.3065C33.8999 27.3905 34.1004 27.473 34.3014 27.55L34.5584 27.644C34.7414 27.712 34.9244 27.774 35.1094 27.8355L35.3589 27.9155C35.6219 27.997 35.8814 28.1 36.1554 28.1455C50.2664 30.484 53.5244 19.6185 53.5244 19.6185C50.5874 23.848 44.9004 25.8655 38.8314 24.2905C38.5632 24.2201 38.2968 24.1431 38.0324 24.0595L37.7919 23.982C37.6044 23.9215 37.4179 23.857 37.2329 23.7895L36.9809 23.6955C36.7789 23.618 36.5783 23.5371 36.3789 23.453L36.2169 23.384C35.9688 23.276 35.7234 23.1618 35.4809 23.0415L35.1114 22.8535L34.8984 22.744C34.7414 22.659 34.5854 22.57 34.4314 22.4805L34.3199 22.417C34.1292 22.3057 33.9405 22.1908 33.7539 22.0725L33.5834 21.958L33.2174 21.716C32.9587 21.5365 32.7044 21.3506 32.4549 21.1585L32.2834 21.023C29.6269 18.9265 27.5214 16.0595 26.5199 12.809C25.4709 9.43901 25.6969 5.65501 27.5144 2.58451L25.2814 5.73751C22.5484 9.67001 22.6969 14.9355 24.8289 19.095C25.1855 19.794 25.5891 20.4681 26.0369 21.1125ZM40.9104 16.247L41.2609 16.3685L41.4154 16.4175C41.5819 16.4695 41.7464 16.5305 41.9179 16.5625C49.7094 18.068 51.8234 12.564 52.3859 11.754C50.5344 14.4195 47.4234 15.059 43.6059 14.1325C43.2934 14.053 42.985 13.9579 42.6819 13.8475C42.3088 13.7149 41.9428 13.563 41.5854 13.3925C40.9071 13.0661 40.2629 12.673 39.6624 12.219C36.2464 9.62651 34.1244 4.68301 36.3534 0.656006L35.1474 2.31801C33.5364 4.68951 33.3779 7.63451 34.4959 10.2525C35.6749 13.0325 38.0909 15.2125 40.9104 16.247ZM33.3894 48.1475H31.2764C31.2166 48.1498 31.1592 48.1714 31.1126 48.2089C31.066 48.2465 31.0328 48.2981 31.0179 48.356L30.2679 51.826L29.5179 55.296C29.5032 55.354 29.4701 55.4056 29.4236 55.4431C29.3771 55.4807 29.3197 55.5023 29.2599 55.5045H27.7644C26.2849 55.5045 26.4559 54.481 26.7589 53.079L26.7679 53.0365L26.8009 52.8595L26.8069 52.8265L26.8744 52.4665L26.9469 52.081L27.0239 51.6885L27.3649 50.0225L27.7064 48.3565C27.7129 48.3311 27.7134 48.3044 27.7078 48.2788C27.7021 48.2531 27.6906 48.2292 27.674 48.2088C27.6574 48.1884 27.6363 48.1722 27.6123 48.1615C27.5883 48.1508 27.5622 48.1458 27.5359 48.147H25.3674C25.3077 48.1492 25.2503 48.1708 25.2039 48.2085C25.1576 48.2462 25.1247 48.298 25.1104 48.356L24.6439 50.568L24.1779 52.7805L24.1769 52.7835L24.1339 52.9895C23.5969 55.441 23.7389 57.7795 26.6579 57.853L26.7429 57.8545H31.3244C31.3842 57.8523 31.4416 57.8307 31.4881 57.7931C31.5346 57.7556 31.5677 57.7039 31.5824 57.646L32.5704 53.0015L33.5584 48.3565C33.5829 48.2415 33.5069 48.148 33.3894 48.1475ZM10.7614 48.123H8.44142C8.38149 48.1253 8.32387 48.1468 8.277 48.1842C8.23013 48.2216 8.19646 48.2731 8.18092 48.331L7.96092 49.302L7.74092 50.273C7.71542 50.3875 7.78992 50.481 7.90742 50.481H10.2454C10.3053 50.4788 10.3629 50.4573 10.4095 50.4197C10.4562 50.3822 10.4895 50.3305 10.5044 50.2725L10.7169 49.302L10.9294 48.3315C10.9539 48.217 10.8789 48.123 10.7614 48.123ZM10.0884 51.145H7.74992C7.69001 51.1474 7.63243 51.1689 7.58557 51.2063C7.53872 51.2437 7.50503 51.2951 7.48942 51.353L7.16092 52.808L6.83292 54.2625L6.74142 54.6795L6.42592 56.1645L6.11092 57.65C6.08642 57.7645 6.03592 57.9495 5.99842 58.0605C5.99842 58.0605 5.56142 59.3605 4.82692 59.3455L4.73492 59.3435L4.09942 59.332H4.09892C4.03922 59.3334 3.98155 59.354 3.93439 59.3906C3.88723 59.4272 3.85307 59.478 3.83692 59.5355L3.59442 60.555L3.35242 61.574C3.32492 61.688 3.39892 61.782 3.51542 61.784C3.93192 61.789 4.86492 61.7995 5.42942 61.7995C7.26392 61.7995 8.23142 60.783 8.85092 57.858L9.57642 54.501L10.2569 51.3525C10.2814 51.239 10.2054 51.145 10.0884 51.145ZM53.1469 50.358L53.0499 49.9575L52.9544 49.5475L52.9059 49.3405C52.7159 48.602 52.1584 48.1765 50.9474 48.1765L49.0624 48.1745L47.3264 48.172H45.3729C45.3132 48.1742 45.2558 48.1957 45.2094 48.2333C45.163 48.2709 45.13 48.3226 45.1154 48.3805L45.0289 48.7885L44.9269 49.2705L44.8984 49.406L44.0189 53.526L43.1839 57.437C43.1589 57.552 43.1509 57.693 43.1649 57.75C43.1789 57.8075 43.4044 57.8545 43.5214 57.8545H45.2834C45.4009 57.8545 45.5494 57.8335 45.6134 57.8075C45.6774 57.7815 45.7719 57.551 45.7954 57.4365L46.1084 55.887L46.4219 54.337L46.4224 54.3345L46.4644 54.128L46.8444 52.348L47.1799 50.776C47.1947 50.7182 47.2278 50.6667 47.2741 50.6291C47.3205 50.5915 47.3778 50.57 47.4374 50.5675L52.9819 50.565C53.0994 50.566 53.1734 50.4725 53.1469 50.358ZM60.2844 46.738L59.8574 46.7395H58.0829C58.0179 46.7432 57.9544 46.7608 57.8969 46.7913C57.8393 46.8218 57.789 46.8643 57.7494 46.916L53.8249 52.665C53.7589 52.762 53.6834 52.748 53.6574 52.634L53.3684 51.3675C53.3529 51.3095 53.3191 51.258 53.2721 51.2206C53.2252 51.1831 53.1674 51.1617 53.1074 51.1595H50.5849C50.4674 51.1595 50.3979 51.2515 50.4299 51.364L51.5604 55.3245C51.5924 55.4375 51.5949 55.6225 51.5659 55.7365L51.0734 57.653C51.0439 57.767 51.1159 57.8595 51.2334 57.8595H53.7269C53.7872 57.8571 53.8453 57.8358 53.893 57.7988C53.9407 57.7618 53.9756 57.7108 53.9929 57.653L54.4859 55.7365C54.5249 55.6014 54.5863 55.4738 54.6674 55.359L61.0384 46.9035C61.1094 46.8095 61.0709 46.733 60.9539 46.734L60.2844 46.738ZM40.2414 51.6975V51.6955C40.2328 51.7559 40.2029 51.8112 40.1572 51.8516C40.1115 51.892 40.0529 51.9148 39.9919 51.916H36.7934C36.6824 51.916 36.6264 51.841 36.6429 51.748L36.6459 51.7405L36.6439 51.7415L36.6454 51.731L36.6599 51.6765C36.9654 50.8645 37.5874 50.3315 38.7569 50.3315C40.0739 50.331 40.3309 50.974 40.2414 51.6975ZM39.3029 48.0055C35.1974 48.0055 34.2244 50.4975 33.6784 53.013C33.1329 55.577 33.1794 57.9735 37.4284 57.9735H37.9434L38.0714 57.973H38.1014L38.6114 57.9715H38.6204C39.7424 57.967 40.8679 57.9585 41.3234 57.955C41.3828 57.952 41.4396 57.93 41.4854 57.8921C41.5313 57.8543 41.5637 57.8027 41.5779 57.745L41.7499 56.9045L41.7834 56.741L41.9884 55.738C41.995 55.7126 41.9954 55.686 41.9898 55.6604C41.9842 55.6347 41.9726 55.6108 41.956 55.5904C41.9394 55.5701 41.9183 55.5539 41.8943 55.5433C41.8703 55.5326 41.8441 55.5277 41.8179 55.529H37.9984C36.4789 55.529 36.0279 55.1255 36.1944 53.9385H42.2999L42.2994 53.939L42.3034 53.9385C42.3517 53.9364 42.3984 53.9205 42.4379 53.8925C42.4773 53.8646 42.5079 53.8259 42.5259 53.781L42.5404 53.728L42.5399 53.7285C43.4464 50.309 43.1864 48.006 39.3029 48.0055ZM19.8979 51.6845L19.8399 51.889V51.8895L19.3789 53.5235L18.9179 55.157C18.8991 55.2149 18.863 55.2656 18.8144 55.3024C18.7659 55.3391 18.7073 55.3601 18.6464 55.3625H16.2064C14.3554 55.3625 13.9044 53.9145 14.3554 51.7795C14.8059 49.5955 15.6894 48.238 17.5114 48.1005C20.0014 47.9125 20.4994 49.6635 19.8979 51.6845ZM21.5719 55.237C21.5719 55.237 22.7224 52.443 22.9834 50.83C23.3399 48.6705 22.2584 45.5375 18.0814 45.5375C13.9284 45.5375 12.1244 48.528 11.4364 51.7795C10.7484 55.0545 11.6499 57.926 15.7794 57.9025L19.0374 57.8905L22.0819 57.8795C22.1423 57.8765 22.2002 57.855 22.248 57.818C22.2957 57.781 22.331 57.7302 22.3489 57.6725L22.8794 55.6495C22.9089 55.5355 22.8374 55.4425 22.7199 55.4415L22.2114 55.4385L21.7029 55.4355C21.6034 55.435 21.5464 55.37 21.5584 55.2845L21.5719 55.237ZM42.1319 53.3665C42.132 53.3849 42.1284 53.4031 42.1214 53.4201C42.1144 53.4371 42.1041 53.4526 42.0911 53.4656C42.0781 53.4786 42.0627 53.4889 42.0457 53.496C42.0288 53.5031 42.0106 53.5067 41.9922 53.5068C41.9738 53.5068 41.9556 53.5032 41.9386 53.4962C41.9216 53.4892 41.9061 53.4789 41.8931 53.4659C41.8801 53.453 41.8697 53.4375 41.8627 53.4206C41.8556 53.4036 41.852 53.3854 41.8519 53.367C41.8519 53.3299 41.8665 53.2942 41.8927 53.2679C41.919 53.2416 41.9545 53.2268 41.9917 53.2268C42.0288 53.2267 42.0644 53.2414 42.0907 53.2676C42.117 53.2938 42.1319 53.3294 42.1319 53.3665Z" fill="white"/>
</svg>
