<svg width="63" height="64" viewBox="0 0 63 64" fill="none" xmlns="http://www.w3.org/2000/svg">
<g clip-path="url(#clip0_50_866)">
<path d="M62.0306 14.4534C62.0536 14.5384 62.0655 14.6262 62.0655 14.7144V28.4279C62.0655 28.7862 61.874 29.1171 61.5629 29.2953L50.0534 35.9225V49.057C50.0534 49.2327 50.0073 49.4054 49.9195 49.5577C49.8318 49.71 49.7056 49.8365 49.5535 49.9246L25.5273 63.7557C25.4723 63.7867 25.4124 63.8066 25.3523 63.8281C25.3297 63.8354 25.3086 63.8492 25.2849 63.8555C25.1169 63.8998 24.9404 63.8998 24.7724 63.8555C24.7448 63.8483 24.7198 63.833 24.6936 63.8231C24.6386 63.8029 24.5811 63.7855 24.5288 63.7557L0.507428 49.9244C0.354784 49.8368 0.227947 49.7104 0.139714 49.5582C0.0514817 49.4059 0.00497381 49.233 0.00488281 49.057L0.00488281 7.91663C0.00488281 7.82645 0.0174889 7.73893 0.0397919 7.65409C0.0473071 7.62524 0.0647616 7.59906 0.0749434 7.57021C0.0936101 7.51784 0.111307 7.46403 0.138701 7.4153C0.157368 7.38281 0.184762 7.35663 0.207307 7.32657C0.236156 7.28657 0.262337 7.24536 0.296034 7.21021C0.324883 7.1816 0.362459 7.16027 0.394943 7.1353C0.431307 7.10524 0.463549 7.07275 0.504762 7.049H0.505974L12.5171 0.133601C12.6692 0.046069 12.8416 0 13.0171 0C13.1926 0 13.365 0.046069 13.5171 0.133601L25.5283 7.049H25.5307C25.5707 7.07421 25.6046 7.10524 25.6408 7.13409C25.6732 7.15906 25.7096 7.1816 25.7382 7.20924C25.7734 7.24536 25.7983 7.28681 25.8282 7.32657C25.8495 7.35663 25.8783 7.38281 25.8958 7.4153C25.9244 7.46524 25.9406 7.51784 25.9608 7.57045C25.9707 7.59906 25.9882 7.62524 25.9957 7.6553C26.0187 7.74039 26.0306 7.82839 26.0308 7.91663V33.6121L36.0396 27.849V14.7132C36.0396 14.626 36.0522 14.537 36.0747 14.4534C36.0834 14.4233 36.0997 14.3971 36.1096 14.3685C36.1297 14.3159 36.1472 14.2618 36.1746 14.2134C36.1932 14.1809 36.2206 14.1547 36.2422 14.1246C36.272 14.0846 36.297 14.0434 36.3319 14.0083C36.361 13.9797 36.3971 13.9583 36.4296 13.9334C36.4672 13.9033 36.4997 13.8708 36.5397 13.8471H36.5409L48.5532 6.93166C48.7053 6.84401 48.8777 6.79787 49.0532 6.79787C49.2288 6.79787 49.4012 6.84401 49.5532 6.93166L61.5644 13.8471C61.6068 13.872 61.6393 13.9033 61.6769 13.9319C61.7079 13.9571 61.7443 13.9797 61.7731 14.0071C61.808 14.0434 61.833 14.0846 61.8628 14.1246C61.8856 14.1547 61.913 14.1809 61.9307 14.2134C61.9593 14.2618 61.9756 14.3159 61.9954 14.3685C62.0068 14.3971 62.0231 14.4233 62.0306 14.4534ZM60.0633 27.8492V16.4456L55.8599 18.8652L50.0531 22.2088V33.6124L60.0645 27.8492H60.0633ZM48.0522 48.4783V37.0667L42.3402 40.329L26.0296 49.6381V61.1566L48.0522 48.4783ZM2.00706 9.64754V48.4783L24.0272 61.1557V49.6393L12.5237 43.1288L12.52 43.1263L12.5152 43.1239C12.4764 43.1014 12.4437 43.0689 12.4075 43.0415C12.376 43.0163 12.3399 42.9964 12.3125 42.9688L12.3101 42.9651C12.2776 42.9338 12.2551 42.8951 12.2277 42.8601C12.2025 42.8262 12.1726 42.7976 12.1525 42.7627L12.1513 42.7588C12.1288 42.7215 12.1149 42.6764 12.0987 42.634C12.0825 42.5964 12.0614 42.5612 12.0512 42.5215V42.5203C12.0388 42.4728 12.0364 42.4226 12.0313 42.3738C12.0265 42.3365 12.0163 42.2989 12.0163 42.2614V15.4109L6.21046 12.066L2.00706 9.64899V9.64754ZM13.0185 2.1559L3.0107 7.91663L13.016 13.6771L23.0223 7.91518L13.016 2.1559H13.0185ZM18.2228 38.1069L24.0284 34.7649V9.64754L19.8255 12.0674L14.0182 15.4107V40.5278L18.2228 38.1069ZM49.0531 8.95397L39.0468 14.7144L49.0531 20.4752L59.0582 14.7132L49.0531 8.95397ZM48.0519 22.2088L42.2451 18.8652L38.042 16.4456V27.8492L43.8475 31.1915L48.0522 33.6124L48.0519 22.2088ZM25.0272 47.9072L39.7043 39.528L47.041 35.3409L37.042 29.584L25.5295 36.2119L15.0369 42.2526L25.0272 47.9072Z" fill="white"/>
</g>
<defs>
<clipPath id="clip0_50_866">
<rect width="62.07" height="64" fill="white"/>
</clipPath>
</defs>
</svg>
