<svg width="64" height="64" viewBox="0 0 64 64" fill="none" xmlns="http://www.w3.org/2000/svg">
<path fill-rule="evenodd" clip-rule="evenodd" d="M41.4015 17.1151C40.0995 13.0611 38.011 9.47306 35.068 6.38556C34.324 5.60456 33.497 4.88906 32.978 3.91756C32.65 3.30256 32.3375 2.67906 32.018 2.06006L31.815 1.54956L31.7585 1.75056C31.732 2.76056 31.16 3.44506 30.448 4.08456C29.646 4.80356 28.9 5.58456 28.13 6.33906L25.762 9.45356L23.8475 12.9746L22.567 16.4321L22.5285 16.4856C21.824 18.8001 21.4765 21.1801 21.306 23.5831C21.2415 24.4866 21.3155 25.4026 21.366 26.3106C21.4385 27.6086 21.664 28.8841 22.002 30.1406C23.2305 34.7036 25.724 38.4881 29.1335 41.7041C29.7665 42.3016 30.451 42.8451 31.1115 43.4131L31.404 44.4171L31.676 45.9751L31.806 47.6016C31.8045 47.9316 31.791 48.2631 31.8105 48.5921C31.816 48.6766 31.926 48.7546 31.988 48.8356L32.54 49.0296L33.1145 49.2531L33.016 47.8076L33.0115 46.3836L33.21 44.2146L33.354 43.7426L33.7665 43.0121C34.2755 42.6031 34.821 42.2311 35.2845 41.7756C36.123 40.9521 36.96 40.1171 37.7105 39.2146C38.6869 38.0447 39.5209 36.7631 40.195 35.3966C40.6445 34.4801 41.0685 33.5451 41.419 32.5876C41.728 31.7436 41.9195 30.8561 42.163 29.9876L42.227 29.8001C42.7295 27.4561 42.814 25.0881 42.6295 22.7051C42.481 20.7846 42.0295 18.9311 41.4015 17.1151ZM31.4515 42.2526C31.5285 41.8671 31.624 41.4836 31.6935 41.0966C31.624 41.4836 31.529 41.8671 31.4515 42.2526ZM33.16 42.5186L32.837 41.8111L33.16 42.5186L33.6345 42.9241L33.16 42.5186ZM53.237 51.4821C52.824 50.6906 52.218 50.0896 51.417 49.6951C50.746 49.3651 50.0245 49.2201 49.2825 49.1991C48.7265 49.1831 48.1685 49.2116 47.6115 49.2186C47.117 49.2246 46.622 49.2331 46.1275 49.2286C45.546 49.2226 44.9645 49.2051 44.383 49.1886C44.2865 49.1856 44.218 49.2051 44.173 49.3031C44.1025 49.4556 44.019 49.6026 43.9325 49.7696L44.0295 49.8006C44.318 49.8516 44.608 49.8951 44.895 49.9526C45.264 50.0261 45.43 50.2381 45.447 50.5491C45.472 50.9921 45.482 51.4361 45.4805 51.8801C45.473 53.6371 45.4605 55.3941 45.4475 57.1506C45.4465 57.2666 45.4445 57.3876 45.413 57.4966C45.3765 57.6226 45.337 57.7856 45.243 57.8476C45.0739 57.9562 44.884 58.0285 44.6855 58.0601C44.405 58.1061 44.358 58.1186 44.2705 58.3946L44.2325 58.5326C44.1905 58.6831 44.213 58.7126 44.37 58.7141C45.271 58.7241 46.1715 58.7436 47.072 58.7406C47.8935 58.7376 48.715 58.7876 49.5335 58.6331C50.307 58.4876 51.029 58.2326 51.688 57.8011C52.543 57.2406 53.158 56.4916 53.4825 55.5141C53.7445 54.7246 53.803 53.9191 53.714 53.0936C53.6585 52.531 53.4966 51.9842 53.237 51.4821ZM51.6585 56.3126C51.1765 57.2096 50.4575 57.8086 49.43 57.9666C48.7865 58.0651 48.142 58.0366 47.5285 57.7931C47.14 57.6391 46.9955 57.3036 46.9835 56.9071C46.9725 56.5185 46.967 56.1298 46.967 55.7411C46.965 54.3741 46.965 53.0071 46.967 51.6406C46.968 51.2101 46.9755 50.7786 46.9825 50.3476C46.9875 50.0446 47.051 49.9431 47.3465 49.9186C48.6445 49.8096 49.883 49.9496 50.9115 50.8631C51.5475 51.4281 51.9095 52.1486 52.06 52.9761C52.1225 53.3211 52.1415 53.6741 52.1805 54.0241C52.149 54.8231 52.041 55.6006 51.6585 56.3126ZM62.553 54.8321C62.297 54.2091 61.812 53.8186 61.2025 53.5686C60.9945 53.4831 60.78 53.4126 60.5555 53.3296L60.634 53.2796C60.8765 53.1241 61.1465 52.9986 61.3555 52.8071C61.8635 52.3416 62.0745 51.7561 61.9755 51.0606C61.8815 50.3991 61.5515 49.9136 60.962 49.5986C60.427 49.3136 59.85 49.2096 59.253 49.2101C58.22 49.2111 57.1865 49.2266 56.1535 49.2286C55.7975 49.2291 55.4415 49.2026 55.0855 49.1976C55.0165 49.1966 54.914 49.2141 54.8845 49.2601C54.803 49.3851 54.749 49.5291 54.691 49.6681C54.6575 49.7491 54.6905 49.7936 54.783 49.8056C55.0315 49.8396 55.2795 49.8821 55.5285 49.9191C55.8725 49.9706 56.039 50.1496 56.06 50.4961L56.0645 50.7016C56.065 51.7791 56.0685 52.8566 56.064 53.9341C56.0576 55.0101 56.0474 56.0861 56.0335 57.1621C56.032 57.2976 56.0135 57.4336 55.994 57.5681C55.9645 57.7711 55.856 57.9111 55.648 57.9551L55.0595 58.0711C54.99 58.0851 54.8895 58.0831 54.861 58.1261C54.753 58.2876 54.666 58.4641 54.678 58.6771L54.7385 58.6936L56.715 58.7421L57.1115 58.7406C57.7955 58.7326 58.4805 58.7461 59.1635 58.7111C59.903 58.6741 60.5975 58.4546 61.2395 58.0771C61.923 57.6746 62.449 57.1441 62.636 56.3461C62.756 55.8366 62.7565 55.3241 62.553 54.8321ZM57.5315 50.2416C57.5345 50.0251 57.63 49.9311 57.845 49.9256C58.3745 49.9111 58.9005 49.9141 59.4115 50.0966C60.0725 50.3326 60.479 50.9026 60.4715 51.5991C60.468 51.8666 60.472 52.1316 60.3735 52.3886C60.179 52.8946 59.806 53.1616 59.277 53.2136C59.001 53.2416 58.7225 53.2446 58.4765 53.2576L57.6555 53.2216C57.5465 53.2176 57.499 53.1696 57.4995 53.0576L57.5315 50.2416ZM60.9345 56.9886C60.67 57.5641 60.188 57.8666 59.5845 57.9716C59.1035 58.0541 58.6104 58.0324 58.1385 57.9081C57.7855 57.8176 57.6415 57.5341 57.571 57.2196C57.5235 57.0091 57.5315 56.7586 57.5275 56.5396C57.521 56.2016 57.526 55.5001 57.526 55.5001H57.519C57.519 55.0001 57.5205 54.5671 57.5175 54.0876C57.517 53.9841 57.5345 53.9326 57.661 53.9366C58.11 53.9501 58.5605 53.9576 59.0095 53.9751C59.411 53.9906 59.787 54.1096 60.1405 54.3001C60.6785 54.5901 61.0025 55.0341 61.0915 55.6441C61.1595 56.1066 61.1305 56.5616 60.9345 56.9886ZM11.641 57.5276L11.6505 54.8091C11.652 54.4001 11.6 53.9991 11.466 53.6111C11.0965 52.5426 10.0775 52.0561 9.01651 52.4396C8.53401 52.6141 8.10151 52.8786 7.68851 53.1786C7.44801 53.3536 7.44801 53.3536 7.27401 53.1041C6.78151 52.3981 6.07801 52.1566 5.25901 52.4171C4.72951 52.5851 4.26651 52.8726 3.82801 53.2066C3.78701 53.2376 3.70451 53.2721 3.68001 53.2536C3.63901 53.2231 3.61051 53.1506 3.61151 53.0961L3.64151 52.6131C3.64401 52.5116 3.62451 52.4096 3.61451 52.3031C3.41651 52.3716 3.25851 52.4401 3.09301 52.4801C2.58151 52.6051 2.06651 52.7201 1.55201 52.8376C1.42751 52.8661 1.29601 52.9036 1.28401 53.0466C1.27151 53.1871 1.40701 53.2106 1.51201 53.2526C1.73301 53.3416 1.95251 53.4361 2.17101 53.5321C2.35451 53.6131 2.42301 53.7596 2.42201 53.9566C2.41851 54.7991 2.42401 55.6406 2.41901 56.4831C2.41701 56.8256 2.40101 57.1676 2.38551 57.5101C2.37151 57.8136 2.26801 57.9406 1.97401 58.0171C1.81801 58.0581 1.65951 58.0856 1.50251 58.1226C1.46801 58.1306 1.40901 58.1526 1.40851 58.1696C1.40201 58.3181 1.39401 58.4701 1.41901 58.6146C1.42401 58.6406 1.58101 58.6406 1.66801 58.6506L1.72651 58.6471C2.33251 58.6381 2.93851 58.6286 3.54501 58.6221C3.86651 58.6186 4.18751 58.6216 4.53651 58.6216L4.57401 58.1366C4.37401 58.1001 4.19551 58.0726 4.01951 58.0341C3.74501 57.9741 3.62801 57.8286 3.62101 57.5516L3.61601 57.1551C3.61301 56.1266 3.60901 55.0986 3.60901 54.0701C3.60901 53.9206 3.67101 53.8021 3.80251 53.7126C4.08101 53.5246 4.37501 53.3751 4.70051 53.2916C5.38651 53.1161 5.98151 53.3601 6.24551 53.9436C6.32901 54.1276 6.39451 54.3311 6.41301 54.5311C6.51001 55.5621 6.46801 56.5941 6.40951 57.6251C6.39701 57.8476 6.29251 57.9596 6.07301 58.0141L5.55701 58.1231C5.51551 58.1336 5.45501 58.1056 5.45201 58.1401C5.44051 58.2826 5.44701 58.5011 5.44701 58.5011H5.57001L7.14101 58.5526C7.57151 58.5516 8.00251 58.6036 8.43251 58.6146C8.50951 58.6161 8.57801 58.6276 8.58251 58.5386C8.58743 58.4004 8.58559 58.2621 8.57701 58.1241L8.49501 58.1096L8.05251 58.0101C7.75401 57.9396 7.65101 57.8261 7.65001 57.5241C7.64651 56.7796 7.65651 56.0356 7.65001 55.2916C7.64618 54.866 7.63034 54.4407 7.60251 54.0161C7.59501 53.9031 7.61251 53.8291 7.70251 53.7656C7.96337 53.5749 8.25684 53.4334 8.56851 53.3481C9.53601 53.0931 10.328 53.6236 10.378 54.6211C10.427 55.5831 10.4065 56.5486 10.399 57.5126C10.3965 57.8481 10.2855 57.9496 9.95501 58.0396L9.84101 58.0691C9.50251 58.1501 9.50551 58.1501 9.52551 58.5096C9.53201 58.6221 9.56301 58.6511 9.68301 58.6481C10.3725 58.6326 11.062 58.6286 11.7515 58.6226C12.0335 58.6201 12.3155 58.6226 12.6225 58.6226L12.685 58.1546C12.4155 58.0831 12.167 58.0301 11.927 57.9516C11.715 57.8796 11.64 57.7516 11.641 57.5276ZM35.3855 53.4071C35.6695 53.1436 35.6715 52.7956 35.592 52.4091C35.367 52.6446 35.115 52.7531 34.8275 52.7736C34.442 52.8011 34.0635 52.7676 33.7045 52.6141C32.7335 52.1971 31.7775 52.2266 30.8245 52.6841C30.023 53.0681 29.53 53.6666 29.4805 54.5741C29.449 55.1556 29.558 55.7061 29.946 56.1686C30.1785 56.4456 30.477 56.6251 30.8135 56.7491C30.9585 56.8026 30.9695 56.8716 30.848 56.9641C30.7583 57.0318 30.6653 57.0952 30.5695 57.1541C30.3664 57.2817 30.1621 57.4074 29.9565 57.5311C29.836 57.6041 29.795 57.6971 29.8345 57.8396C29.95 58.2586 30.2475 58.5006 30.6195 58.6771L30.755 58.7716L30.6365 58.8901C30.272 59.1856 29.893 59.4646 29.544 59.7781C29.251 60.0416 29.1565 60.3946 29.245 60.7841C29.4235 61.5616 29.939 62.0426 30.6705 62.2636C31.949 62.6506 33.1495 62.4286 34.244 61.6711C34.893 61.2216 35.3585 60.6366 35.5 59.8316C35.6585 58.9271 35.156 58.1421 34.2565 57.9801C33.6615 57.8721 33.0525 57.8411 32.4505 57.7721C32.1695 57.7401 31.8845 57.7211 31.611 57.6566C31.3785 57.6016 31.263 57.4121 31.2845 57.2271C31.306 57.0451 31.4995 56.8756 31.721 56.8581C32.167 56.8221 32.604 56.7526 33.015 56.5646C34.104 56.0666 34.6095 55.1946 34.483 54.0206C34.4665 53.8626 34.4305 53.7066 34.398 53.5226C34.7465 53.5811 35.103 53.6696 35.3855 53.4071ZM32.081 58.9156C32.524 58.9286 33.028 58.9561 33.515 59.0986C33.9435 59.2236 34.296 59.4426 34.4 59.9211C34.5255 60.4991 34.2475 61.0741 33.688 61.3831C33.164 61.6721 32.595 61.6961 32.018 61.6366C31.524 61.5856 31.0795 61.4146 30.7235 61.0496C30.2545 60.5691 30.252 59.9041 30.7215 59.4251C31.141 58.9971 31.3655 58.9086 32.081 58.9156ZM33.1895 55.4346C32.9315 56.2601 32.1805 56.3741 31.592 56.1101C31.0905 55.8856 30.872 55.4436 30.7575 54.9391C30.713 54.7451 30.7025 54.5436 30.6765 54.3451C30.687 54.0606 30.734 53.7876 30.8565 53.5316C31.232 52.7431 32.1545 52.7901 32.665 53.1471C32.884 53.3001 33.0365 53.5081 33.132 53.7546C33.3446 54.2911 33.3649 54.8847 33.1895 55.4346ZM28.5045 58.0661C28.3259 58.0387 28.1493 57.9993 27.976 57.9481C27.672 57.8551 27.635 57.7981 27.6315 57.4766C27.6225 56.5806 27.6165 55.6846 27.6065 54.7891C27.6015 54.3861 27.5535 53.9886 27.43 53.6036C27.105 52.5886 26.1095 52.0436 25.1135 52.3431C24.5615 52.5096 24.0875 52.8191 23.646 53.1826L23.485 53.3061L23.4855 53.1406C23.496 52.9501 23.5165 52.7596 23.515 52.5691C23.514 52.4696 23.476 52.3696 23.4575 52.2821C23.081 52.3956 22.7435 52.5096 22.399 52.5966C22.0535 52.6836 21.701 52.7426 21.3515 52.8136C21.178 52.8486 21.0505 52.9536 21.0535 53.0731C21.058 53.2416 21.1975 53.2741 21.3195 53.3246C21.5405 53.4151 21.761 53.5066 21.9795 53.6036C22.1355 53.6731 22.199 53.8021 22.1975 53.9696C22.1865 55.1341 22.1795 56.2991 22.1625 57.4641C22.1575 57.8321 22.0645 57.9291 21.7025 58.0101L21.5445 58.0416C21.2095 58.0991 21.2 58.1126 21.223 58.4661L21.225 58.5246C21.221 58.6606 21.2805 58.7046 21.4205 58.7031C22.3105 58.6926 23.201 58.6876 24.091 58.6911C24.4725 58.6926 24.5135 58.6626 24.5055 58.2706L24.4875 58.1021C24.2695 58.0656 24.061 58.0391 23.857 57.9941C23.6435 57.9466 23.567 57.8591 23.547 57.6421C23.5285 57.4436 23.5225 57.2421 23.5205 57.0421C23.5105 56.1266 23.5025 55.2111 23.498 54.2961C23.497 54.0656 23.5395 53.8516 23.7515 53.7031C24.0635 53.4801 24.4314 53.3482 24.814 53.3221C25.608 53.2676 26.2115 53.7381 26.2545 54.5296C26.3075 55.5061 26.2915 56.4861 26.304 57.4646C26.305 57.5376 26.292 57.6111 26.282 57.6836C26.263 57.8266 26.193 57.9341 26.048 57.9711C25.9065 58.0081 25.763 58.0411 25.6185 58.0631C25.403 58.0951 25.3985 58.0936 25.382 58.3111L25.3875 58.4576C25.413 58.7106 25.4135 58.7031 25.6695 58.7006C26.5305 58.6936 27.391 58.6891 28.2515 58.6901C28.6115 58.6911 28.637 58.6741 28.64 58.3031L28.639 58.2151C28.6445 58.1201 28.602 58.0816 28.5045 58.0661ZM40.5305 52.4046C39.628 52.1841 38.772 52.3481 37.959 52.7686C37.169 53.1771 36.641 53.8086 36.44 54.6806C36.237 55.5621 36.334 56.4221 36.7235 57.2406C36.977 57.7721 37.367 58.1831 37.898 58.4501C39.141 59.0761 40.6615 58.7921 41.6365 57.9546C42.406 57.2941 42.6885 56.4146 42.7055 55.3261C42.695 55.2171 42.6845 55.0071 42.6555 54.7991C42.492 53.6141 41.6715 52.6836 40.5305 52.4046ZM41.214 56.9821C40.9745 57.9251 40.159 58.3441 39.239 58.0201C38.7695 57.8551 38.4185 57.5396 38.1825 57.1131C37.6395 56.1331 37.535 55.0911 37.844 54.0221C38.05 53.3101 38.636 52.9206 39.333 52.9696C39.956 53.0131 40.435 53.3121 40.7865 53.8191C41.157 54.3541 41.3 54.9626 41.338 55.6016C41.3445 55.7041 41.339 55.8066 41.339 55.9096L41.383 55.9146C41.328 56.2711 41.302 56.6346 41.214 56.9821ZM17.832 52.3891C16.8825 52.1721 15.993 52.3866 15.169 52.8691C14.4565 53.2861 13.996 53.9091 13.8195 54.7231C13.654 55.4836 13.7215 56.2311 13.991 56.9596C14.155 57.4036 14.4035 57.7941 14.768 58.0986C15.5355 58.7391 16.4325 58.9011 17.387 58.7226C18.195 58.5711 18.905 58.2121 19.421 57.5406C19.904 56.9126 20.088 56.1916 20.107 55.4101C20.0785 55.1626 20.0715 54.9106 20.019 54.6691C19.758 53.4636 19.053 52.6676 17.832 52.3891ZM18.6065 56.9791C18.375 57.9171 17.5465 58.3466 16.633 58.0226C16.0465 57.8141 15.6645 57.3846 15.423 56.8341C15.036 55.9496 14.957 55.0291 15.2075 54.0961C15.3995 53.3826 15.978 52.8571 16.8635 52.9831C17.407 53.0601 17.831 53.3376 18.147 53.7791C18.574 54.3746 18.7145 55.0566 18.734 55.7731V55.9196L18.77 55.9251C18.7175 56.2771 18.6915 56.6351 18.6065 56.9791Z" fill="white"/>
</svg>
