<svg width="65" height="64" viewBox="0 0 65 64" fill="none" xmlns="http://www.w3.org/2000/svg">
<path d="M32.2101 16.5195C15.3401 16.5195 1.66309 23.4505 1.66309 32C1.66309 40.5495 15.3401 47.4805 32.2101 47.4805C49.0801 47.4805 62.7571 40.5495 62.7571 32C62.7571 23.4505 49.0801 16.5195 32.2101 16.5195ZM24.2616 35.016C23.5326 35.698 22.7231 35.9795 21.8316 36.2695C20.9401 36.56 19.8056 36.5 18.4261 36.5H15.2996L14.4331 41.5H10.7826L14.0401 24.5H21.0601C23.1721 24.5 24.7126 25.1075 25.6811 26.216C26.6496 27.3245 26.9406 28.898 26.5546 30.8845C26.3951 31.703 26.1266 32.464 25.7476 33.142C25.3548 33.8416 24.8532 34.4742 24.2616 35.016ZM34.9171 36.5L36.3576 29.29C36.5216 28.446 36.4616 27.819 36.1771 27.5125C35.8921 27.2055 35.2861 27 34.3596 27H31.4646L29.5991 36.5H25.9771L29.2346 20H32.8566L31.9906 24.5H35.2171C37.2476 24.5 38.6476 24.9075 39.4181 25.6155C40.1886 26.3235 40.4196 27.2935 40.1116 28.8795L38.5961 36.5H34.9171ZM55.0466 30.911C54.8876 31.7295 54.6186 32.4775 54.2401 33.155C53.8611 33.8335 53.3661 34.454 52.7546 35.016C52.0256 35.698 51.2156 35.9795 50.3246 36.2695C49.4336 36.56 48.2981 36.5 46.9186 36.5H43.7921L42.9261 41.5H39.2756L42.5326 24.5H49.5531C51.6651 24.5 53.2056 25.1075 54.1736 26.216C55.1411 27.3245 55.4326 28.925 55.0466 30.911ZM48.1696 27H45.6691L44.3056 34H46.5266C47.9976 34 49.0946 33.855 49.8146 33.3C50.5356 32.746 51.0211 31.886 51.2736 30.5895C51.5156 29.344 51.4056 28.3725 50.9436 27.8605C50.4811 27.3485 49.5566 27 48.1696 27ZM19.6771 27H17.1761L15.8126 34H18.0331C19.5046 34 20.6011 33.855 21.3216 33.3C22.0421 32.746 22.5281 31.886 22.7801 30.5895C23.0221 29.344 22.9121 28.3725 22.4501 27.8605C21.9881 27.3485 21.0641 27 19.6771 27Z" fill="white"/>
</svg>
