<svg width="64" height="64" viewBox="0 0 64 64" fill="none" xmlns="http://www.w3.org/2000/svg">
<path d="M7.49269 13.8561C7.37419 10.4486 10.0287 7.30664 13.6172 7.30664H50.3872C53.9757 7.30664 56.6302 10.4486 56.5117 13.8561C56.3977 17.1291 56.5457 21.3691 57.6127 24.8261C58.6832 28.2941 60.4882 30.4856 63.4447 30.7676V33.9611C60.4882 34.2431 58.6832 36.4346 57.6127 39.9026C56.5457 43.3596 56.3977 47.5996 56.5117 50.8726C56.6302 54.2801 53.9757 57.4216 50.3872 57.4216H13.6172C10.0287 57.4216 7.37419 54.2796 7.49269 50.8726C7.60669 47.5996 7.45869 43.3596 6.39119 39.9026C5.32119 36.4351 3.51119 34.2431 0.554688 33.9611V30.7676C3.51119 30.4861 5.32119 28.2941 6.39119 24.8261C7.45869 21.3691 7.60619 17.1291 7.49269 13.8561Z" fill="white"/>
<g filter="url(#filter0_d_49_199)">
<path d="M33.5548 45.868C39.3643 45.868 42.8651 43.0235 42.8651 38.3317C42.8651 34.7853 40.3672 32.2178 36.6582 31.8113V31.6635C39.3832 31.2203 41.5216 28.6897 41.5216 25.8636C41.5216 21.8369 38.3425 19.2139 33.4981 19.2139H22.5981V45.868H33.5548ZM26.837 22.5941H32.4763C35.5418 22.5941 37.2827 23.961 37.2827 26.4361C37.2827 29.0776 35.258 30.5553 31.5868 30.5553H26.837V22.5941ZM26.837 42.4877V33.7138H32.4383C36.4501 33.7138 38.5317 35.1915 38.5317 38.0731C38.5317 40.9545 36.5069 42.4877 32.6843 42.4877H26.837Z" fill="#0A0A0A"/>
<path d="M33.5548 45.868C39.3643 45.868 42.8651 43.0235 42.8651 38.3317C42.8651 34.7853 40.3672 32.2178 36.6582 31.8113V31.6635C39.3832 31.2203 41.5216 28.6897 41.5216 25.8636C41.5216 21.8369 38.3425 19.2139 33.4981 19.2139H22.5981V45.868H33.5548ZM26.837 22.5941H32.4763C35.5418 22.5941 37.2827 23.961 37.2827 26.4361C37.2827 29.0776 35.258 30.5553 31.5868 30.5553H26.837V22.5941ZM26.837 42.4877V33.7138H32.4383C36.4501 33.7138 38.5317 35.1915 38.5317 38.0731C38.5317 40.9545 36.5069 42.4877 32.6843 42.4877H26.837Z" stroke="#0A0A0A" stroke-width="0.24566"/>
</g>
<defs>
<filter id="filter0_d_49_199" x="18.5445" y="16.1431" width="28.3738" height="34.7609" filterUnits="userSpaceOnUse" color-interpolation-filters="sRGB">
<feFlood flood-opacity="0" result="BackgroundImageFix"/>
<feColorMatrix in="SourceAlpha" type="matrix" values="0 0 0 0 0 0 0 0 0 0 0 0 0 0 0 0 0 0 127 0" result="hardAlpha"/>
<feOffset dy="0.98264"/>
<feGaussianBlur stdDeviation="1.96528"/>
<feColorMatrix type="matrix" values="0 0 0 0 0 0 0 0 0 0 0 0 0 0 0 0 0 0 0.15 0"/>
<feBlend mode="normal" in2="BackgroundImageFix" result="effect1_dropShadow_49_199"/>
<feBlend mode="normal" in="SourceGraphic" in2="effect1_dropShadow_49_199" result="shape"/>
</filter>
</defs>
</svg>
