<svg width="65" height="64" viewBox="0 0 65 64" fill="none" xmlns="http://www.w3.org/2000/svg">
<path d="M1.20996 0.5V63H63.71V0.5H1.20996ZM34.2695 53.7565C33.347 55.631 31.586 56.8625 29.5455 57.457C26.41 58.177 23.411 57.7665 21.18 56.4275C19.687 55.5115 18.521 54.1015 17.7295 52.477L22.4895 49.562C22.531 49.5795 22.656 49.8055 22.823 50.0975C23.43 51.1145 23.9535 51.8345 24.9825 52.34C25.9935 52.685 28.213 52.9055 29.07 51.1265C29.5935 50.2215 29.427 47.3125 29.427 44.094C29.4265 39.0365 29.45 34 29.45 29H35.3045C35.3045 34.5 35.3345 39.709 35.3045 45.076C35.317 48.366 35.6025 51.299 34.2695 53.7565ZM58.5565 52.1025C56.5215 59.0635 45.1755 59.2895 40.6415 54.6905C39.6835 53.608 39.083 53.0425 38.5115 51.793C40.921 50.407 40.921 50.407 43.2655 49.0505C44.539 51.008 45.7165 52.0845 47.835 52.525C50.709 52.876 53.6005 51.8885 52.952 48.836C52.2855 46.343 47.067 45.7365 43.5155 43.0705C39.91 40.649 39.065 34.765 42.028 31.403C43.0155 30.1595 44.6995 29.2315 46.4665 28.7855L48.3105 28.547C51.851 28.4755 54.064 29.4105 55.6885 31.2245C56.1405 31.6825 56.5095 32.1765 57.1995 33.247C55.3135 34.449 55.3195 34.4375 52.618 36.1865C52.041 34.9435 51.0835 34.1635 50.0715 33.8245C48.5005 33.3485 46.5195 33.866 46.1085 35.526C45.966 36.0375 45.9955 36.5135 46.222 37.3585C46.8585 38.81 48.9945 39.441 50.9105 40.3215C56.426 42.5585 58.2885 44.957 58.7465 47.812C59.1875 50.27 58.64 51.8645 58.5565 52.1025Z" fill="white"/>
</svg>
