<svg width="65" height="64" viewBox="0 0 65 64" fill="none" xmlns="http://www.w3.org/2000/svg">
<path d="M56.549 15.167L34.4775 2.36451C33.087 1.57251 31.2655 1.57251 29.864 2.36451L7.61996 15.167C6.18546 15.9925 5.20996 17.544 5.20996 19.2035V44.7745C5.20996 46.434 6.20596 47.986 7.64096 48.816L13.5055 52.16C16.319 53.546 17.0985 53.546 18.3785 53.546C22.5455 53.546 24.7095 51.0265 24.7095 46.632V21.387C24.71 21.0305 24.9325 20.5 24.582 20.5H21.771C21.415 20.5 20.71 21.0305 20.71 21.3865V46.6315C20.71 48.5795 18.902 50.518 15.609 48.8715L9.54796 45.365C9.33696 45.25 9.20996 45.0185 9.20996 44.7745V19.2035C9.20996 18.9625 9.44146 18.7205 9.65546 18.597L31.8445 5.81651C31.9534 5.75864 32.0749 5.72837 32.1982 5.72837C32.3216 5.72837 32.443 5.75864 32.552 5.81651L54.5335 18.594C54.744 18.7205 54.7105 18.955 54.7105 19.2035V44.7745C54.7105 45.0185 54.7565 45.256 54.549 45.3735L32.4825 58.1615C32.2935 58.275 32.0475 58.275 31.84 58.1615L26.1815 54.787C26.011 54.688 25.8055 54.6525 25.6415 54.744C24.069 55.6355 23.777 55.754 22.302 56.2655C21.9385 56.392 21.4025 56.6115 22.506 57.23L29.905 61.607C30.6113 62.0151 31.4127 62.23 32.2285 62.23C33.0474 62.2313 33.8522 62.0164 34.5615 61.607L56.5495 48.816C57.985 47.98 58.7105 46.434 58.7105 44.7745V19.2035C58.71 17.544 57.9845 15.9965 56.549 15.167ZM39.0735 40.7225C33.21 40.7225 31.919 39.105 31.4885 36.1895C31.4375 35.8755 31.1715 35.5 30.8515 35.5H27.9865C27.632 35.5 27.3465 35.93 27.3465 36.283C27.3465 40.016 29.3765 44.539 39.0735 44.539C46.0925 44.539 50.1175 41.8115 50.1175 36.9845C50.1175 32.1985 46.884 30.9425 40.0765 30.0415C33.1955 29.132 32.4965 28.6725 32.4965 27.0605C32.4965 25.7315 33.0885 23.959 38.1835 23.959C42.7355 23.959 44.4135 24.936 45.104 28.0045C45.1635 28.293 45.427 28.5 45.7245 28.5H48.6015C48.7785 28.5 48.947 28.4285 49.071 28.302C49.1915 28.166 49.2545 27.9955 49.239 27.8125C48.7925 22.528 45.2825 20.0655 38.183 20.0655C31.867 20.0655 28.1 22.7325 28.1 27.203C28.1 32.052 31.8485 33.392 37.911 33.9915C45.1635 34.7025 45.7275 35.7625 45.7275 37.189C45.7275 39.667 43.7385 40.7225 39.0735 40.7225Z" fill="white"/>
</svg>
