<svg width="64" height="64" viewBox="0 0 64 64" fill="none" xmlns="http://www.w3.org/2000/svg">
<path d="M32.0002 16C24.8802 16 20.4535 19.5467 18.6668 26.6667C21.3335 23.12 24.4535 21.7867 28.0002 22.6667C30.0268 23.1733 31.4935 24.64 33.0935 26.2667C35.7068 28.9333 38.6668 32 45.3335 32C52.4535 32 56.8802 28.4533 58.6668 21.3333C56.0002 24.88 52.8802 26.2133 49.3335 25.3333C47.3068 24.8267 45.8668 23.36 44.2402 21.7333C41.6268 19.0667 38.6668 16 32.0002 16ZM18.6668 32C11.5468 32 7.12016 35.5467 5.3335 42.6667C8.00016 39.12 11.1202 37.7867 14.6668 38.6667C16.6935 39.1733 18.1335 40.64 19.7602 42.2667C22.3735 44.9333 25.3335 48 32.0002 48C39.1202 48 43.5468 44.4533 45.3335 37.3333C42.6668 40.88 39.5468 42.2133 36.0002 41.3333C33.9735 40.8267 32.5335 39.36 30.9068 37.7333C28.2935 35.0667 25.3335 32 18.6668 32Z" fill="white"/>
</svg>
