<svg width="65" height="64" viewBox="0 0 65 64" fill="none" xmlns="http://www.w3.org/2000/svg">
<g clip-path="url(#clip0_49_185)">
<path d="M11.5449 23.5H61.3799V60.335H11.5449V23.5Z" fill="#0A0A0A"/>
<path d="M0.959961 31.955V63.205H63.46V0.704956H0.959961V31.955ZM51.325 29.455C52.8219 29.8023 54.1824 30.5853 55.235 31.705C55.8144 32.3082 56.3181 32.9798 56.735 33.705C56.735 33.785 54.035 35.61 52.39 36.63C52.33 36.67 52.09 36.41 51.825 36.015C51.5247 35.4968 51.098 35.0631 50.5847 34.7545C50.0715 34.4459 49.4884 34.2723 48.89 34.25C46.995 34.12 45.775 35.115 45.785 36.75C45.7693 37.157 45.8625 37.5609 46.055 37.92C46.47 38.785 47.245 39.3 49.675 40.35C54.15 42.275 56.065 43.545 57.255 45.35C58.585 47.35 58.88 50.58 57.98 52.97C56.98 55.57 54.53 57.335 51.065 57.92C49.4824 58.1012 47.8834 58.0844 46.305 57.87C43.8858 57.4712 41.6574 56.3097 39.945 54.555C39.37 53.92 38.25 52.265 38.32 52.145C38.5025 52.0095 38.6947 51.8875 38.895 51.78L41.21 50.5L43.005 49.46L43.38 50.015C44.0128 50.9203 44.8182 51.6917 45.75 52.285C47.75 53.335 50.48 53.19 51.83 51.975C52.2832 51.5297 52.566 50.9396 52.629 50.3074C52.6921 49.6752 52.5314 49.0409 52.175 48.515C51.675 47.82 50.675 47.235 47.88 46.015C44.655 44.625 43.265 43.765 41.995 42.395C41.2021 41.4909 40.6168 40.4243 40.28 39.27C40.0287 37.9512 39.9916 36.6005 40.17 35.27C40.835 32.155 43.17 29.98 46.58 29.335C48.1592 29.1396 49.7588 29.1834 51.325 29.465V29.455ZM36.655 32.075V34.635H28.54V57.75H22.785V34.63H14.65V32.13C14.6246 31.2678 14.6446 30.405 14.71 29.545C14.75 29.5 19.71 29.5 25.71 29.5H36.625L36.655 32.075Z" fill="white"/>
</g>
<defs>
<clipPath id="clip0_49_185">
<rect width="64" height="64" fill="white" transform="translate(0.209961)"/>
</clipPath>
</defs>
</svg>
